<svg xmlns="http://www.w3.org/2000/svg" height="36" fill="#ffffff" viewBox="0 -960 960 960" width="36"><path d="M447.855-259.797H277.812q-91.502 0-155.852-64.312-64.351-64.313-64.351-155.985 0-91.672 64.351-155.97 64.35-64.298 155.852-64.298h170.043v89.42H277.914q-54.721 0-92.883 38.086t-38.162 92.699q0 54.614 38.162 92.857 38.162 38.242 92.883 38.242h169.941v89.261Zm-137.34-178.95v-83.361h338.97v83.361h-338.97Zm201.63 178.95v-89.261h169.941q54.721 0 92.883-38.086t38.162-92.699q0-54.614-38.162-92.857-38.162-38.242-92.883-38.242H512.145v-89.42h170.043q91.451 0 155.906 64.428 64.456 64.428 64.456 156.1T838.094-323.98q-64.455 64.183-155.906 64.183H512.145Z"/></svg>