<svg xmlns="http://www.w3.org/2000/svg" height="40" fill="#ffffff" viewBox="0 -960 960 960" width="40"><path d="M71.486-70.392v-639.491H251.37v-179.884h458.513v360.861h179.884v458.514H534.993v-188.971H425.007v188.97H71.487Zm89.261-89.26h99.71v-99.711h-99.71v99.711Zm0-179.884h99.71v-99.95h-99.71v99.95Zm0-180.978h99.71v-99.95h-99.71v99.95ZM340.63-339.536h99.711v-99.95H340.63v99.95Zm0-180.978h99.711v-99.95H340.63v99.95Zm0-180.123h99.711v-99.711H340.63v99.711Zm179.884 361.101h99.95v-99.95h-99.95v99.95Zm0-180.978h99.95v-99.95h-99.95v99.95Zm0-180.123h99.95v-99.711h-99.95v99.711Zm180.123 540.985h99.711v-99.711h-99.711v99.711Zm0-179.884h99.711v-99.95h-99.711v99.95Z"/></svg>