<svg xmlns="http://www.w3.org/2000/svg" height="36" fill="#ffffff" viewBox="0 -960 960 960" width="36"><path d="M558.765-346.362q18.979 0 32.375-13.154 13.396-13.153 13.396-32.321 0-19.169-13.311-32.318-13.311-13.149-32.693-13.149-19.212 0-32.194 13.153-12.983 13.154-12.983 32.322 0 19.168 13.135 32.318 13.135 13.149 32.275 13.149Zm-31.504-129.326h60.608q.174-28.028 6.966-42.695 6.792-14.668 28.889-38.211 29.483-29.35 40.169-48.244 10.686-18.894 10.686-45.696 0-48.274-32.717-78.091-32.717-29.817-86.442-29.817-41.845 0-74.122 23.069-32.276 23.069-43.943 63.018l55.181 22.949q9.398-24.92 25.561-38.601 16.164-13.681 37.28-13.681 27.19 0 43.392 15.047t16.202 38.779q0 18.05-9.047 32.32t-29.192 30.144q-34.341 31.913-41.906 49.178-7.565 17.264-7.565 60.532ZM291.832-195.485q-36.23 0-62.745-26.728-26.515-26.727-26.515-62.532v-532.929q0-35.871 26.515-62.646 26.515-26.774 62.745-26.774h532.929q35.871 0 62.526 26.774 26.655 26.775 26.655 62.646v532.929q0 35.805-26.655 62.532-26.655 26.728-62.526 26.728H291.832Zm0-89.26h532.929v-532.929H291.832v532.929ZM135.906-39.638q-36.296 0-62.739-26.655-26.442-26.655-26.442-62.526v-622.189h89.181v622.189h622.189v89.18H135.906Zm155.926-778.036v532.929-532.929Z"/></svg>