<svg xmlns="http://www.w3.org/2000/svg" height="36" fill="#ffffff" viewBox="0 -960 960 960" width="36"><path d="M2.138-118.631v-122.724q0-40.623 19.785-72.675t54.795-48.528q72.051-33.159 136.301-48.826 64.249-15.666 131.622-15.666 67.717 0 131.556 15.666 63.839 15.667 135.76 48.761 34.636 16.064 54.926 48.162 20.291 32.099 20.291 73.093v122.737H2.138Zm757.601 0v-127.021q0-56.21-28.866-102.478-28.866-46.268-81.04-79.5 67.118 8.237 126.417 24.259 59.3 16.023 101.72 38.374 37.759 20.997 59.158 52.089 21.4 31.091 21.4 67.982v126.295H759.739Zm-415.29-369.507q-74.056 0-122.589-48.485t-48.533-122.296q0-73.811 48.541-122.678 48.542-48.866 122.335-48.866 73.557 0 122.623 48.796 49.065 48.796 49.065 122.335 0 74.224-48.951 122.709t-122.491 48.485Zm426.876-171.196q0 73.987-48.892 122.592-48.891 48.604-122.235 48.604-14.139 0-32.774-2.38t-32.62-7.46q26.572-31.355 39.779-72.225 13.206-40.871 13.206-88.859 0-47.987-13.231-87.637t-39.754-73.944q15.116-4.812 32.618-7.316 17.502-2.504 32.703-2.504 73.315 0 122.257 48.914 48.943 48.913 48.943 122.215ZM91.399-207.891h506.355v-32.428q0-14.153-7.045-26.162-7.046-12.009-17.817-16.237-66.312-29.775-118.877-42.344-52.565-12.569-109.772-12.569-56.728 0-110.025 12.569-53.297 12.569-118.623 42.344-10.613 4.204-17.404 16.221-6.792 12.016-6.792 26.178v32.428Zm252.839-366.558q36.214 0 60.778-24.245 24.564-24.246 24.564-60.421t-24.628-60.606q-24.629-24.431-60.832-24.431t-60.343 24.504q-24.139 24.504-24.139 60.651 0 36.214 24.226 60.381 24.227 24.167 60.374 24.167Zm.386 366.558Zm-.095-451.369Z"/></svg>