<svg xmlns="http://www.w3.org/2000/svg" height="36" fill="#ffffff" viewBox="0 -960 960 960" width="36"><path d="M112.109-145.152q-33.957 0-58.098-24.191t-24.141-58.63q0-34.44 24.313-58.404 24.313-23.963 57.604-23.963 6.169 0 11.481.359 5.312.358 13.189 1.692l182.92-183.021q-2-7.777-2.493-12.288-.492-4.512-.492-11.402 0-33.892 24.296-57.917 24.297-24.025 58.666-24.025t58.337 24.265q23.968 24.265 23.968 58.338 0 3.506-2.985 23.222l99.034 98.349q7.492-1.761 12.677-2.373 5.184-.612 10.653-.612t10.94.445q5.471.446 12.984 2.446l142.27-142.233q-1.667-7.248-1.779-12.702-.112-5.454-.112-11.679 0-34.238 24.25-58.138 24.251-23.9 58.667-23.9t58.144 23.89q23.728 23.891 23.728 58.552 0 34.152-24.024 58.369-24.025 24.217-57.761 24.217-6.062 0-11.573-.112t-13.069-1.779L681.717-336.152q1.667 7.558 1.779 12.815.112 5.256.112 11.398 0 33.78-23.963 57.997t-58.508 24.217q-34.035 0-58.416-24.197-24.38-24.197-24.38-57.987 0-6.57.612-11.588.612-5.019 2.373-12.756l-98.362-98.406q-7.735 1.773-12.875 2.385-5.14.613-11.228.613-3.464 0-23.391-2.998L192.768-251.077q1.572 7.295 1.811 12.519.24 5.224.24 11.555 0 33.264-24.034 57.557-24.033 24.294-58.676 24.294ZM160-561.095l-28.442-61.13-61.13-28.442 61.13-28.653L160-740.906l28.653 61.586 61.585 28.653-61.585 28.442L160-561.095Zm440-36.334-42.674-93.231-93.231-42.674 92.964-43.391L600-869.905l43.391 93.18 93.18 43.391-93.18 42.941L600-597.429Z"/></svg>