<svg xmlns="http://www.w3.org/2000/svg" height="36" fill="#ffffff"
     viewBox="0 -960 960 960" width="36">
    <path d="M409.245-503.087q-71.045 0-121.394-50.296-50.35-50.296-50.35-120.924 0-71.378 50.296-121.387 50.296-50.008 120.924-50.008 71.378 0 121.506 49.963 50.128 49.964 50.128 120.912 0 71.047-50.032 121.393-50.033 50.347-121.078 50.347Zm-.432-89.261q34.333 0 58.228-24.151 23.895-24.151 23.895-57.9 0-34.333-23.86-58.308-23.86-23.974-57.859-23.974t-58.227 24.018q-24.229 24.018-24.229 57.922 0 34.002 24.152 58.198 24.151 24.195 57.9 24.195ZM896.283-1.065l-134.91-134.943q-21.822 13.809-45.842 20.126-24.021 6.317-49.103 6.317-77.335 0-130.961-53.537-53.626-53.536-53.626-130.743t53.569-131.094q53.569-53.887 130.823-53.887t131.141 53.821q53.887 53.82 53.887 131.433 0 25.31-6.302 48.991-6.301 23.682-20.967 45.955L958.935-63.717 896.283-1.065ZM666.081-198.826q40.077 0 67.919-27.433 27.841-27.434 27.841-67.488 0-40.053-27.767-67.936-27.767-27.882-67.821-27.882-40.053 0-67.523 27.799-27.469 27.8-27.469 67.9 0 40.101 27.404 67.571 27.405 27.469 67.416 27.469ZM66.458-118.631v-123.391q0-40.049 19.242-71.238 19.242-31.188 55.548-49.283 56.847-29.283 139.992-49.855 83.145-20.573 172.283-12.413-14.314 21.042-22.4 43.952-8.086 22.91-11.564 42.801-76.566-2.696-139.049 17.222-62.483 19.919-100.528 38.173-10.403 5.601-17.334 17.643-6.93 12.042-6.93 23.795v33.334h263.044q16.369 23.372 32.101 45.993 15.732 22.622 35.637 43.267H66.458Zm342.391-555.804Zm9.913 466.544Z"/>
</svg>